<svg xmlns="http://www.w3.org/2000/svg" xmlns:xlink="http://www.w3.org/1999/xlink" xmlns:lucid="lucid" width="1264.08" height="1011"><g transform="translate(-120 0)" lucid:page-tab-id="0_0"><path d="M0 0h1870.87v1322.83H0z" fill="#fff"/><path d="M748 20c17.67 0 32 17.9 32 40s-14.33 40-32 40h-96c-17.67 0-32-17.9-32-40s14.33-40 32-40z" stroke="#5e5e5e" stroke-width="3" fill="#fff"/><use xlink:href="#a" transform="matrix(1,0,0,1,625,25) translate(51.574074074074076 39.65277777777778)"/><path d="M612.25 144.7c2.07-2.6 6.44-4.7 9.75-4.7h156c3.3 0 7.68 2.1 9.75 4.7l48.5 60.6c2.07 2.6 2.07 6.8 0 9.4l-48.5 60.6c-2.07 2.6-6.44 4.7-9.75 4.7H622c-3.3 0-7.68-2.1-9.75-4.7l-48.5-60.6c-2.07-2.6-2.07-6.8 0-9.4z" stroke="#5e5e5e" stroke-width="3" fill="#fff"/><use xlink:href="#b" transform="matrix(1,0,0,1,565,145) translate(44.91240740740739 29.96527777777778)"/><use xlink:href="#c" transform="matrix(1,0,0,1,565,145) translate(90.52969135802468 29.96527777777778)"/><use xlink:href="#d" transform="matrix(1,0,0,1,565,145) translate(109.66549382716047 29.96527777777778)"/><use xlink:href="#e" transform="matrix(1,0,0,1,565,145) translate(52.07290123456791 56.63194444444445)"/><use xlink:href="#c" transform="matrix(1,0,0,1,565,145) translate(151.94944444444445 56.63194444444445)"/><use xlink:href="#f" transform="matrix(1,0,0,1,565,145) translate(171.08524691358025 56.63194444444445)"/><use xlink:href="#g" transform="matrix(1,0,0,1,565,145) translate(110.00500000000001 83.29861111111111)"/><use xlink:href="#h" transform="matrix(1,0,0,1,565,145) translate(128.52351851851853 83.29861111111111)"/><use xlink:href="#i" transform="matrix(1,0,0,1,565,145) translate(147.65932098765433 83.29861111111111)"/><use xlink:href="#j" transform="matrix(1,0,0,1,565,145) translate(106.94944444444445 109.9652777777778)"/><use xlink:href="#h" transform="matrix(1,0,0,1,565,145) translate(131.57907407407407 109.9652777777778)"/><use xlink:href="#k" transform="matrix(1,0,0,1,565,145) translate(150.71487654320987 109.9652777777778)"/><path d="M700 102.5V120" stroke="#5e5e5e" stroke-width="2" fill="none"/><path d="M701 102.53h-2v-1.03h2z" fill="#5e5e5e"/><path d="M700 135.26L695.36 121h9.28z" stroke="#5e5e5e" stroke-width="2" fill="#5e5e5e"/><path d="M695.08 543.44c2.72-1.9 7.12-1.9 9.84 0l140.16 98.12c2.72 1.9 2.72 4.98 0 6.88l-140.16 98.12c-2.72 1.9-7.12 1.9-9.84 0l-140.16-98.12c-2.72-1.9-2.72-4.98 0-6.88z" stroke="#5e5e5e" stroke-width="3" fill="#fff"/><use xlink:href="#l" transform="matrix(1,0,0,1,555,545) translate(32.22722222222224 105.27777777777777)"/><use xlink:href="#m" transform="matrix(1,0,0,1,555,545) translate(119.69635802469136 105.27777777777777)"/><use xlink:href="#n" transform="matrix(1,0,0,1,555,545) translate(138.83216049382716 105.27777777777777)"/><use xlink:href="#o" transform="matrix(1,0,0,1,555,545) translate(220.12845679012344 105.27777777777777)"/><use xlink:href="#p" transform="matrix(1,0,0,1,555,545) translate(239.26425925925923 105.27777777777777)"/><path d="M140 591c0-3.3 2.7-6 6-6h308c3.3 0 6 2.7 6 6v108c0 3.3-2.7 6-6 6H146c-3.3 0-6-2.7-6-6z" stroke="#5e5e5e" stroke-width="3" fill="#fff"/><use xlink:href="#q" transform="matrix(1,0,0,1,152,597) translate(8.462962962962962 38.77777777777778)"/><use xlink:href="#n" transform="matrix(1,0,0,1,152,597) translate(161.24074074074073 38.77777777777778)"/><use xlink:href="#o" transform="matrix(1,0,0,1,152,597) translate(242.53703703703704 38.77777777777778)"/><use xlink:href="#r" transform="matrix(1,0,0,1,152,597) translate(261.67283950617286 38.77777777777778)"/><use xlink:href="#s" transform="matrix(1,0,0,1,152,597) translate(69.38888888888889 65.44444444444446)"/><use xlink:href="#c" transform="matrix(1,0,0,1,152,597) translate(169.26543209876542 65.44444444444446)"/><use xlink:href="#t" transform="matrix(1,0,0,1,152,597) translate(188.4012345679012 65.44444444444446)"/><path d="M495.93 646H480v-2h15.93zm54.57 0h-33.43v-2h33.43z" fill="#5e5e5e"/><path d="M551.38 644.13l.26 1.87h-1.16v-2h.97zM479 649.64L464.74 645l14.26-4.64z" fill="#5e5e5e"/><path d="M480 651l-18.5-6 18.5-6zm-12.03-6l10.03 3.26v-6.52z" fill="#5e5e5e"/><use xlink:href="#u" transform="matrix(1,0,0,1,495.9339982530752,634.3333333333334) translate(0 14.222222222222223)"/><path d="M620 866c0-3.3 2.7-6 6-6h148c3.3 0 6 2.7 6 6v48c0 3.3-2.7 6-6 6H626c-3.3 0-6-2.7-6-6z" stroke="#5e5e5e" stroke-width="3" fill="#fff"/><use xlink:href="#v" transform="matrix(1,0,0,1,632,872) translate(18.061728395061728 22.27777777777778)"/><use xlink:href="#c" transform="matrix(1,0,0,1,632,872) translate(42.691358024691354 22.27777777777778)"/><use xlink:href="#w" transform="matrix(1,0,0,1,632,872) translate(61.82716049382716 22.27777777777778)"/><use xlink:href="#o" transform="matrix(1,0,0,1,632,872) translate(86.45679012345678 22.27777777777778)"/><use xlink:href="#x" transform="matrix(1,0,0,1,632,872) translate(105.59259259259258 22.27777777777778)"/><path d="M701 840h-2v-25.37h2zm0-46.7h-2v-42.87h2z" fill="#5e5e5e"/><path d="M701 749.44v1h-2v-1.02zM700 855.26L695.36 841h9.28z" fill="#5e5e5e"/><path d="M700 858.5l-6-18.5h12zm-3.26-16.5l3.26 10.03 3.26-10.03z" fill="#5e5e5e"/><use xlink:href="#y" transform="matrix(1,0,0,1,685.4814814814815,793.2963002699175) translate(0 14.222222222222223)"/><path d="M695.2 343.6c2.65-2 6.95-2 9.6 0l70.4 52.8c2.65 2 2.65 5.2 0 7.2l-70.4 52.8c-2.65 2-6.95 2-9.6 0l-70.4-52.8c-2.65-2-2.65-5.2 0-7.2z" stroke="#5e5e5e" stroke-width="3" fill="#fff"/><use xlink:href="#z" transform="matrix(1,0,0,1,625,345) translate(36.455617283950616 59.02777777777778)"/><use xlink:href="#A" transform="matrix(1,0,0,1,625,345) translate(54.974135802469135 59.02777777777778)"/><use xlink:href="#B" transform="matrix(1,0,0,1,625,345) translate(74.10993827160493 59.02777777777778)"/><path d="M700 282.5v39.67" stroke="#5e5e5e" stroke-width="2" fill="none"/><path d="M701 282.53h-2v-1.03h2z" fill="#5e5e5e"/><path d="M700 337.43l-4.64-14.26h9.28z" stroke="#5e5e5e" stroke-width="2" fill="#5e5e5e"/><path d="M701 522.07h-2v-11.45h2zm0-32.78h-2v-28.97h2z" fill="#5e5e5e"/><path d="M701 459.35v1h-2v-1.04zM700 537.34l-4.64-14.27h9.28z" fill="#5e5e5e"/><path d="M700 540.57l-6-18.5h12zm-3.26-16.5L700 534.1l3.26-10.03z" fill="#5e5e5e"/><use xlink:href="#u" transform="matrix(1,0,0,1,689.4320987654321,489.28508237862155) translate(0 14.222222222222223)"/><path d="M980 370c11.05 0 20 13.43 20 30s-8.95 30-20 30h-60c-11.05 0-20-13.43-20-30s8.95-30 20-30z" stroke="#5e5e5e" stroke-width="3" fill="#fff"/><use xlink:href="#C" transform="matrix(1,0,0,1,905,375) translate(26.512345679012345 30.27777777777778)"/><path d="M824.04 401H779.6v-2h44.44zm55.96 0h-26.93v-2H880z" fill="#5e5e5e"/><path d="M779.64 401h-1.1l.18-.4-.28-1.6h1.2zM895.26 400L881 404.64v-9.28z" fill="#5e5e5e"/><path d="M898.5 400l-18.5 6v-12zm-16.5 3.26l10.03-3.26-10.03-3.26z" fill="#5e5e5e"/><use xlink:href="#y" transform="matrix(1,0,0,1,824.0365785572335,389.3333333333333) translate(0 14.222222222222223)"/><path d="M301 793.87l.7 2.64 1.8 1.8 2.63.7H661.5v2H305.87l-3.42-.92-2.53-2.53-.92-3.42V707.5h2z" fill="#5e5e5e"/><path d="M301 707.53h-2v-1.03h2zM676.76 800l-14.26 4.64v-9.28z" fill="#5e5e5e"/><path d="M680 800l-18.5 6v-12zm-16.5 3.26l10.03-3.26-10.03-3.26z" fill="#5e5e5e"/><path d="M925.2 833.6c2.65-2 6.95-2 9.6 0l70.4 52.8c2.65 2 2.65 5.2 0 7.2l-70.4 52.8c-2.65 2-6.95 2-9.6 0l-70.4-52.8c-2.65-2-2.65-5.2 0-7.2z" stroke="#5e5e5e" stroke-width="3" fill="#fff"/><use xlink:href="#v" transform="matrix(1,0,0,1,855,835) translate(17.381543209876547 59.02777777777778)"/><use xlink:href="#A" transform="matrix(1,0,0,1,855,835) translate(42.01117283950617 59.02777777777778)"/><use xlink:href="#D" transform="matrix(1,0,0,1,855,835) translate(61.14697530864197 59.02777777777778)"/><use xlink:href="#E" transform="matrix(1,0,0,1,855,835) translate(106.76425925925925 59.02777777777778)"/><use xlink:href="#x" transform="matrix(1,0,0,1,855,835) translate(120.28277777777777 59.02777777777778)"/><path d="M782.5 890h50.4" stroke="#5e5e5e" stroke-width="2" fill="none"/><path d="M782.53 891h-1.03v-2h1.03z" fill="#5e5e5e"/><path d="M848.15 890l-14.26 4.64v-9.28z" stroke="#5e5e5e" stroke-width="2" fill="#5e5e5e"/><path d="M1049.6 884.13l-.9 3.42-2.54 2.53-3.42.92h-33.13v-2h32.88l2.64-.7 1.78-1.8.7-2.63V693.33h2zm-3.44-384.2l2.53 2.52.9 3.42V672h-2V506.13l-.7-2.64-1.78-1.8-2.64-.7H738.5v-2h304.24z" fill="#5e5e5e"/><path d="M1009.64 891h-1.1l.18-.4-.28-1.6h1.2zM737.5 504.64L723.24 500l14.26-4.64z" fill="#5e5e5e"/><path d="M738.5 506l-18.5-6 18.5-6zm-12.03-6l10.03 3.26v-6.52z" fill="#5e5e5e"/><g><use xlink:href="#u" transform="matrix(1,0,0,1,1038.0432238050196,672) translate(0 14.222222222222223)"/></g><path d="M1205.15 603.53c2.68-1.95 7.02-1.95 9.7 0l100.3 72.94c2.68 1.95 2.68 5.1 0 7.06l-100.3 72.94c-2.68 1.95-7.02 1.95-9.7 0l-100.3-72.94c-2.68-1.95-2.68-5.1 0-7.06z" stroke="#5e5e5e" stroke-width="3" fill="#fff"/><g><use xlink:href="#F" transform="matrix(1,0,0,1,1105,605) translate(22.0729012345679 78.71527777777777)"/><use xlink:href="#c" transform="matrix(1,0,0,1,1105,605) translate(121.94944444444445 78.71527777777777)"/><use xlink:href="#G" transform="matrix(1,0,0,1,1105,605) translate(141.08524691358025 78.71527777777777)"/></g><path d="M931 983.2l.7 2.64 1.8 1.77 2.63.73h121.97v2H935.87l-3.42-.92-2.53-2.52-.92-3.42v-33.13h2zm280 .26l-.92 3.42-2.53 2.53-3.42.93h-117v-2h116.74l2.64-.72 1.8-1.76.7-2.64V777.87h2zM931 949.35v1h-2v-1.04zM1214.64 776.87h-9.28l4.64-14.26z" fill="#5e5e5e"/><path d="M1216 777.87h-12l6-18.5zm-9.26-2h6.52l-3.26-10.03z" fill="#5e5e5e"/><g><use xlink:href="#y" transform="matrix(1,0,0,1,1058.0954820388945,978.6627652970782) translate(0 14.222222222222223)"/></g><path d="M1211 599.63h-2v-48.96h2zm-3.45-199.7l2.53 2.52.92 3.42v123.46h-2v-123.2l-.7-2.64-1.8-1.8-2.63-.7H1020v-2h184.13z" fill="#5e5e5e"/><path d="M1211 600.64l-2-.03v-1h2zM1019 404.64l-14.26-4.64 14.26-4.64z" fill="#5e5e5e"/><path d="M1020 406l-18.5-6 18.5-6zm-12.03-6l10.03 3.26v-6.52z" fill="#5e5e5e"/><g><use xlink:href="#u" transform="matrix(1,0,0,1,1199.432098765432,529.3333333333334) translate(0 14.222222222222223)"/></g><path d="M1359.56 674.13l-.92 3.42-2.53 2.53-3.4.92h-33.14v-2h32.87l2.64-.7 1.77-1.8.72-2.63V552h2zm-3.45-374.2l2.54 2.52.92 3.42v224.8h-2V306.13l-.72-2.64-1.77-1.8-2.64-.7H1065v-2h287.7z" fill="#5e5e5e"/><path d="M1319.58 681h-1.03l.12-.28-.27-1.72h1.18zM1064 304.64l-14.26-4.64 14.26-4.64z" fill="#5e5e5e"/><path d="M1065 306l-18.5-6 18.5-6zm-12.03-6l10.03 3.26v-6.52z" fill="#5e5e5e"/><g><use xlink:href="#y" transform="matrix(1,0,0,1,1344.0408178978346,530.6666666666667) translate(0 14.222222222222223)"/></g><path d="M855 254c0-3.3 2.7-6 6-6h178c3.3 0 6 2.7 6 6v92c0 3.3-2.7 6-6 6H861c-3.3 0-6-2.7-6-6z" stroke="#5e5e5e" stroke-width="3" fill="#fff"/><g><use xlink:href="#z" transform="matrix(1,0,0,1,867,260) translate(39.17283950617284 30.27777777777778)"/><use xlink:href="#c" transform="matrix(1,0,0,1,867,260) translate(57.69135802469136 30.27777777777778)"/><use xlink:href="#H" transform="matrix(1,0,0,1,867,260) translate(76.82716049382717 30.27777777777778)"/><use xlink:href="#o" transform="matrix(1,0,0,1,867,260) translate(95.34567901234567 30.27777777777778)"/><use xlink:href="#I" transform="matrix(1,0,0,1,867,260) translate(114.48148148148147 30.27777777777778)"/><use xlink:href="#s" transform="matrix(1,0,0,1,867,260) translate(0.06790123456789843 56.94444444444445)"/><use xlink:href="#c" transform="matrix(1,0,0,1,867,260) translate(99.94444444444444 56.94444444444445)"/><use xlink:href="#G" transform="matrix(1,0,0,1,867,260) translate(119.08024691358024 56.94444444444445)"/></g><path d="M852.5 300h-134" stroke="#5e5e5e" stroke-width="2" fill="none"/><path d="M853.5 301h-1.03v-2h1.03z" fill="#5e5e5e"/><path d="M703.24 300l14.26-4.64v9.28z" stroke="#5e5e5e" stroke-width="2" fill="#5e5e5e"/><defs><path fill="#333" d="M185-189c-5-48-123-54-124 2 14 75 158 14 163 119 3 78-121 87-175 55-17-10-28-26-33-46l33-7c5 56 141 63 141-1 0-78-155-14-162-118-5-82 145-84 179-34 5 7 8 16 11 25" id="J"/><path fill="#333" d="M59-47c-2 24 18 29 38 22v24C64 9 27 4 27-40v-127H5v-23h24l9-43h21v43h35v23H59v120" id="K"/><path fill="#333" d="M141-36C126-15 110 5 73 4 37 3 15-17 15-53c-1-64 63-63 125-63 3-35-9-54-41-54-24 1-41 7-42 31l-33-3c5-37 33-52 76-52 45 0 72 20 72 64v82c-1 20 7 32 28 27v20c-31 9-61-2-59-35zM48-53c0 20 12 33 32 33 41-3 63-29 60-74-43 2-92-5-92 41" id="L"/><path fill="#333" d="M114-163C36-179 61-72 57 0H25l-1-190h30c1 12-1 29 2 39 6-27 23-49 58-41v29" id="M"/><g id="a"><use transform="matrix(0.06172839506172839,0,0,0.06172839506172839,0,0)" xlink:href="#J"/><use transform="matrix(0.06172839506172839,0,0,0.06172839506172839,14.814814814814813,0)" xlink:href="#K"/><use transform="matrix(0.06172839506172839,0,0,0.06172839506172839,20.98765432098765,0)" xlink:href="#L"/><use transform="matrix(0.06172839506172839,0,0,0.06172839506172839,33.33333333333333,0)" xlink:href="#M"/><use transform="matrix(0.06172839506172839,0,0,0.06172839506172839,40.679012345679006,0)" xlink:href="#K"/></g><path fill="#333" d="M135-143c-3-34-86-38-87 0 15 53 115 12 119 90S17 21 10-45l28-5c4 36 97 45 98 0-10-56-113-15-118-90-4-57 82-63 122-42 12 7 21 19 24 35" id="N"/><path fill="#333" d="M24-231v-30h32v30H24zM24 0v-190h32V0H24" id="O"/><path fill="#333" d="M9 0v-24l116-142H16v-24h144v24L44-24h123V0H9" id="P"/><path fill="#333" d="M100-194c63 0 86 42 84 106H49c0 40 14 67 53 68 26 1 43-12 49-29l28 8c-11 28-37 45-77 45C44 4 14-33 15-96c1-61 26-98 85-98zm52 81c6-60-76-77-97-28-3 7-6 17-6 28h103" id="Q"/><g id="b"><use transform="matrix(0.06172839506172839,0,0,0.06172839506172839,0,0)" xlink:href="#N"/><use transform="matrix(0.06172839506172839,0,0,0.06172839506172839,11.11111111111111,0)" xlink:href="#O"/><use transform="matrix(0.06172839506172839,0,0,0.06172839506172839,15.987654320987653,0)" xlink:href="#P"/><use transform="matrix(0.06172839506172839,0,0,0.06172839506172839,27.098765432098766,0)" xlink:href="#Q"/></g><path fill="#333" d="M18-150v-26h174v26H18zm0 90v-26h174v26H18" id="R"/><use transform="matrix(0.06172839506172839,0,0,0.06172839506172839,0,0)" xlink:href="#R" id="c"/><path fill="#333" d="M179-190L93 31C79 59 56 82 12 73V49c39 6 53-20 64-50L1-190h34L92-34l54-156h33" id="S"/><path fill="#333" d="M33 0v-38h34V0H33" id="T"/><path fill="#834187" d="M24 0v-261h32V0H24" id="U"/><path fill="#834187" d="M100-194c63 0 86 42 84 106H49c0 40 14 67 53 68 26 1 43-12 49-29l28 8c-11 28-37 45-77 45C44 4 14-33 15-96c1-61 26-98 85-98zm52 81c6-60-76-77-97-28-3 7-6 17-6 28h103" id="V"/><path fill="#834187" d="M117-194c89-4 53 116 60 194h-32v-121c0-31-8-49-39-48C34-167 62-67 57 0H25l-1-190h30c1 10-1 24 2 32 11-22 29-35 61-36" id="W"/><path fill="#834187" d="M177-190C167-65 218 103 67 71c-23-6-38-20-44-43l32-5c15 47 100 32 89-28v-30C133-14 115 1 83 1 29 1 15-40 15-95c0-56 16-97 71-98 29-1 48 16 59 35 1-10 0-23 2-32h30zM94-22c36 0 50-32 50-73 0-42-14-75-50-75-39 0-46 34-46 75s6 73 46 73" id="X"/><path fill="#834187" d="M59-47c-2 24 18 29 38 22v24C64 9 27 4 27-40v-127H5v-23h24l9-43h21v43h35v23H59v120" id="Y"/><path fill="#834187" d="M106-169C34-169 62-67 57 0H25v-261h32l-1 103c12-21 28-36 61-36 89 0 53 116 60 194h-32v-121c2-32-8-49-39-48" id="Z"/><g id="d"><use transform="matrix(0.06172839506172839,0,0,0.06172839506172839,0,0)" xlink:href="#L"/><use transform="matrix(0.06172839506172839,0,0,0.06172839506172839,12.345679012345679,0)" xlink:href="#M"/><use transform="matrix(0.06172839506172839,0,0,0.06172839506172839,19.691358024691358,0)" xlink:href="#M"/><use transform="matrix(0.06172839506172839,0,0,0.06172839506172839,27.037037037037038,0)" xlink:href="#L"/><use transform="matrix(0.06172839506172839,0,0,0.06172839506172839,39.382716049382715,0)" xlink:href="#S"/><use transform="matrix(0.06172839506172839,0,0,0.06172839506172839,48.827160493827165,0)" xlink:href="#T"/><use transform="matrix(0.06172839506172839,0,0,0.06172839506172839,55.00000000000001,0)" xlink:href="#U"/><use transform="matrix(0.06172839506172839,0,0,0.06172839506172839,59.87654320987655,0)" xlink:href="#V"/><use transform="matrix(0.06172839506172839,0,0,0.06172839506172839,72.22222222222223,0)" xlink:href="#W"/><use transform="matrix(0.06172839506172839,0,0,0.06172839506172839,84.56790123456791,0)" xlink:href="#X"/><use transform="matrix(0.06172839506172839,0,0,0.06172839506172839,96.9135802469136,0)" xlink:href="#Y"/><use transform="matrix(0.06172839506172839,0,0,0.06172839506172839,103.08641975308643,0)" xlink:href="#Z"/></g><path fill="#333" d="M212-179c-10-28-35-45-73-45-59 0-87 40-87 99 0 60 29 101 89 101 43 0 62-24 78-52l27 14C228-24 195 4 139 4 59 4 22-46 18-125c-6-104 99-153 187-111 19 9 31 26 39 46" id="aa"/><path fill="#333" d="M106-169C34-169 62-67 57 0H25v-261h32l-1 103c12-21 28-36 61-36 89 0 53 116 60 194h-32v-121c2-32-8-49-39-48" id="ab"/><path fill="#333" d="M117-194c89-4 53 116 60 194h-32v-121c0-31-8-49-39-48C34-167 62-67 57 0H25l-1-190h30c1 10-1 24 2 32 11-22 29-35 61-36" id="ac"/><path fill="#333" d="M177-190C167-65 218 103 67 71c-23-6-38-20-44-43l32-5c15 47 100 32 89-28v-30C133-14 115 1 83 1 29 1 15-40 15-95c0-56 16-97 71-98 29-1 48 16 59 35 1-10 0-23 2-32h30zM94-22c36 0 50-32 50-73 0-42-14-75-50-75-39 0-46 34-46 75s6 73 46 73" id="ad"/><g id="e"><use transform="matrix(0.06172839506172839,0,0,0.06172839506172839,0,0)" xlink:href="#O"/><use transform="matrix(0.06172839506172839,0,0,0.06172839506172839,4.876543209876543,0)" xlink:href="#N"/><use transform="matrix(0.06172839506172839,0,0,0.06172839506172839,15.987654320987653,0)" xlink:href="#aa"/><use transform="matrix(0.06172839506172839,0,0,0.06172839506172839,31.975308641975307,0)" xlink:href="#ab"/><use transform="matrix(0.06172839506172839,0,0,0.06172839506172839,44.32098765432099,0)" xlink:href="#L"/><use transform="matrix(0.06172839506172839,0,0,0.06172839506172839,56.666666666666664,0)" xlink:href="#ac"/><use transform="matrix(0.06172839506172839,0,0,0.06172839506172839,69.01234567901234,0)" xlink:href="#ad"/><use transform="matrix(0.06172839506172839,0,0,0.06172839506172839,81.35802469135803,0)" xlink:href="#Q"/></g><path fill="#ef8d22" d="M101-234c-31-9-42 10-38 44h38v23H63V0H32v-167H5v-23h27c-7-52 17-82 69-68v24" id="ae"/><path fill="#ef8d22" d="M141-36C126-15 110 5 73 4 37 3 15-17 15-53c-1-64 63-63 125-63 3-35-9-54-41-54-24 1-41 7-42 31l-33-3c5-37 33-52 76-52 45 0 72 20 72 64v82c-1 20 7 32 28 27v20c-31 9-61-2-59-35zM48-53c0 20 12 33 32 33 41-3 63-29 60-74-43 2-92-5-92 41" id="af"/><path fill="#ef8d22" d="M24 0v-261h32V0H24" id="ag"/><path fill="#ef8d22" d="M135-143c-3-34-86-38-87 0 15 53 115 12 119 90S17 21 10-45l28-5c4 36 97 45 98 0-10-56-113-15-118-90-4-57 82-63 122-42 12 7 21 19 24 35" id="ah"/><path fill="#ef8d22" d="M100-194c63 0 86 42 84 106H49c0 40 14 67 53 68 26 1 43-12 49-29l28 8c-11 28-37 45-77 45C44 4 14-33 15-96c1-61 26-98 85-98zm52 81c6-60-76-77-97-28-3 7-6 17-6 28h103" id="ai"/><g id="f"><use transform="matrix(0.06172839506172839,0,0,0.06172839506172839,0,0)" xlink:href="#ae"/><use transform="matrix(0.06172839506172839,0,0,0.06172839506172839,6.172839506172839,0)" xlink:href="#af"/><use transform="matrix(0.06172839506172839,0,0,0.06172839506172839,18.51851851851852,0)" xlink:href="#ag"/><use transform="matrix(0.06172839506172839,0,0,0.06172839506172839,23.395061728395063,0)" xlink:href="#ah"/><use transform="matrix(0.06172839506172839,0,0,0.06172839506172839,34.50617283950618,0)" xlink:href="#ai"/></g><path d="M117-194c89-4 53 116 60 194h-32v-121c0-31-8-49-39-48C34-167 62-67 57 0H25l-1-190h30c1 10-1 24 2 32 11-22 29-35 61-36" id="aj"/><use transform="matrix(0.06172839506172839,0,0,0.06172839506172839,0,0)" xlink:href="#aj" id="g"/><path d="M18-150v-26h174v26H18zm0 90v-26h174v26H18" id="ak"/><use transform="matrix(0.06172839506172839,0,0,0.06172839506172839,0,0)" xlink:href="#ak" id="h"/><path d="M101-251c68 0 85 55 85 127S166 4 100 4C33 4 14-52 14-124c0-73 17-127 87-127zm-1 229c47 0 54-49 54-102s-4-102-53-102c-51 0-55 48-55 102 0 53 5 102 54 102" id="al"/><use transform="matrix(0.06172839506172839,0,0,0.06172839506172839,0,0)" xlink:href="#al" id="i"/><path d="M210-169c-67 3-38 105-44 169h-31v-121c0-29-5-50-35-48C34-165 62-65 56 0H25l-1-190h30c1 10-1 24 2 32 10-44 99-50 107 0 11-21 27-35 58-36 85-2 47 119 55 194h-31v-121c0-29-5-49-35-48" id="am"/><use transform="matrix(0.06172839506172839,0,0,0.06172839506172839,0,0)" xlink:href="#am" id="j"/><use transform="matrix(0.06172839506172839,0,0,0.06172839506172839,0,0)" xlink:href="#al" id="k"/><path fill="#333" d="M26 75v-336h71v23H56V52h41v23H26" id="an"/><path fill="#333" d="M210-169c-67 3-38 105-44 169h-31v-121c0-29-5-50-35-48C34-165 62-65 56 0H25l-1-190h30c1 10-1 24 2 32 10-44 99-50 107 0 11-21 27-35 58-36 85-2 47 119 55 194h-31v-121c0-29-5-49-35-48" id="ao"/><path fill="#333" d="M3 75V52h41v-290H3v-23h71V75H3" id="ap"/><g id="l"><use transform="matrix(0.06172839506172839,0,0,0.06172839506172839,0,0)" xlink:href="#L"/><use transform="matrix(0.06172839506172839,0,0,0.06172839506172839,12.345679012345679,0)" xlink:href="#M"/><use transform="matrix(0.06172839506172839,0,0,0.06172839506172839,19.691358024691358,0)" xlink:href="#M"/><use transform="matrix(0.06172839506172839,0,0,0.06172839506172839,27.037037037037038,0)" xlink:href="#L"/><use transform="matrix(0.06172839506172839,0,0,0.06172839506172839,39.382716049382715,0)" xlink:href="#S"/><use transform="matrix(0.06172839506172839,0,0,0.06172839506172839,50.49382716049382,0)" xlink:href="#an"/><use transform="matrix(0.06172839506172839,0,0,0.06172839506172839,56.666666666666664,0)" xlink:href="#ao"/><use transform="matrix(0.06172839506172839,0,0,0.06172839506172839,75.12345679012346,0)" xlink:href="#ap"/></g><path fill="#333" d="M18-27v-27l151-64-151-65v-27l175 74v36" id="aq"/><use transform="matrix(0.06172839506172839,0,0,0.06172839506172839,0,0)" xlink:href="#aq" id="m"/><g id="n"><use transform="matrix(0.06172839506172839,0,0,0.06172839506172839,0,0)" xlink:href="#L"/><use transform="matrix(0.06172839506172839,0,0,0.06172839506172839,12.345679012345679,0)" xlink:href="#M"/><use transform="matrix(0.06172839506172839,0,0,0.06172839506172839,19.691358024691358,0)" xlink:href="#M"/><use transform="matrix(0.06172839506172839,0,0,0.06172839506172839,27.037037037037038,0)" xlink:href="#L"/><use transform="matrix(0.06172839506172839,0,0,0.06172839506172839,39.382716049382715,0)" xlink:href="#S"/><use transform="matrix(0.06172839506172839,0,0,0.06172839506172839,50.49382716049382,0)" xlink:href="#an"/><use transform="matrix(0.06172839506172839,0,0,0.06172839506172839,56.666666666666664,0)" xlink:href="#ao"/></g><path fill="#333" d="M118-107v75H92v-75H18v-26h74v-75h26v75h74v26h-74" id="ar"/><use transform="matrix(0.06172839506172839,0,0,0.06172839506172839,0,0)" xlink:href="#ar" id="o"/><path fill="#333" d="M27 0v-27h64v-190l-56 39v-29l58-41h29v221h61V0H27" id="as"/><g id="p"><use transform="matrix(0.06172839506172839,0,0,0.06172839506172839,0,0)" xlink:href="#as"/><use transform="matrix(0.06172839506172839,0,0,0.06172839506172839,12.345679012345679,0)" xlink:href="#ap"/></g><path fill="#333" d="M55-144c13 50 104 24 104 88C159 21 15 23 1-39l26-10c6 40 102 42 102-4-13-50-104-23-104-87 0-71 143-71 148-8l-29 4c-5-35-85-37-89 0" id="at"/><path fill="#333" d="M188 0h-37l-8-164L71 0H34L18-190h31l8 164 75-164h34l8 164 74-164h31" id="au"/><path fill="#333" d="M165-48c-4 18 1 34 23 27l-3 20c-29 8-62 0-52-35h-2C116-14 99 4 63 4 30 4 8-16 8-49c0-68 71-67 138-67 10-26 0-56-31-54-26 1-42 9-47 31l-32-5c8-67 160-71 144 15-5 28-9 54-15 81zM42-50c3 52 80 24 89-6 7-12 7-24 11-38-47 1-103-4-100 44" id="av"/><path fill="#333" d="M67-162c32-53 139-36 121 50C175-51 163 2 97 4 68 4 52-11 42-31 38 6 28 39 22 75H-9l50-265h29c-1 10 0 20-3 28zm89 36c0-26-10-43-35-43-54 0-67 50-69 103-1 29 14 45 42 46 53 0 62-58 62-106" id="aw"/><path fill="#333" d="M87 75C49 33 22-17 22-94c0-76 28-126 65-167h31c-38 41-64 92-64 168S80 34 118 75H87" id="ax"/><path fill="#333" d="M68-38c1 34 0 65-14 84H32c9-13 17-26 17-46H33v-38h35" id="ay"/><g id="q"><use transform="matrix(0.06172839506172839,0,0,0.06172839506172839,0,0)" xlink:href="#at"/><use transform="matrix(0.06172839506172839,0,0,0.06172839506172839,11.11111111111111,0)" xlink:href="#au"/><use transform="matrix(0.06172839506172839,0,0,0.06172839506172839,27.098765432098766,0)" xlink:href="#av"/><use transform="matrix(0.06172839506172839,0,0,0.06172839506172839,39.44444444444444,0)" xlink:href="#aw"/><use transform="matrix(0.06172839506172839,0,0,0.06172839506172839,51.79012345679012,0)" xlink:href="#ax"/><use transform="matrix(0.06172839506172839,0,0,0.06172839506172839,59.1358024691358,0)" xlink:href="#L"/><use transform="matrix(0.06172839506172839,0,0,0.06172839506172839,71.48148148148148,0)" xlink:href="#M"/><use transform="matrix(0.06172839506172839,0,0,0.06172839506172839,78.82716049382717,0)" xlink:href="#M"/><use transform="matrix(0.06172839506172839,0,0,0.06172839506172839,86.17283950617285,0)" xlink:href="#L"/><use transform="matrix(0.06172839506172839,0,0,0.06172839506172839,98.51851851851853,0)" xlink:href="#S"/><use transform="matrix(0.06172839506172839,0,0,0.06172839506172839,109.62962962962965,0)" xlink:href="#an"/><use transform="matrix(0.06172839506172839,0,0,0.06172839506172839,115.80246913580248,0)" xlink:href="#ao"/><use transform="matrix(0.06172839506172839,0,0,0.06172839506172839,134.25925925925927,0)" xlink:href="#ap"/><use transform="matrix(0.06172839506172839,0,0,0.06172839506172839,140.4320987654321,0)" xlink:href="#ay"/></g><path fill="#333" d="M33-261c38 41 65 92 65 168S71 34 33 75H2C39 34 66-17 66-93S39-220 2-261h31" id="az"/><g id="r"><use transform="matrix(0.06172839506172839,0,0,0.06172839506172839,0,0)" xlink:href="#as"/><use transform="matrix(0.06172839506172839,0,0,0.06172839506172839,12.345679012345679,0)" xlink:href="#ap"/><use transform="matrix(0.06172839506172839,0,0,0.06172839506172839,18.51851851851852,0)" xlink:href="#az"/></g><g id="s"><use transform="matrix(0.06172839506172839,0,0,0.06172839506172839,0,0)" xlink:href="#O"/><use transform="matrix(0.06172839506172839,0,0,0.06172839506172839,4.876543209876543,0)" xlink:href="#N"/><use transform="matrix(0.06172839506172839,0,0,0.06172839506172839,15.987654320987653,0)" xlink:href="#aa"/><use transform="matrix(0.06172839506172839,0,0,0.06172839506172839,31.975308641975307,0)" xlink:href="#ab"/><use transform="matrix(0.06172839506172839,0,0,0.06172839506172839,44.32098765432099,0)" xlink:href="#L"/><use transform="matrix(0.06172839506172839,0,0,0.06172839506172839,56.666666666666664,0)" xlink:href="#ac"/><use transform="matrix(0.06172839506172839,0,0,0.06172839506172839,69.01234567901234,0)" xlink:href="#ad"/><use transform="matrix(0.06172839506172839,0,0,0.06172839506172839,81.35802469135803,0)" xlink:href="#Q"/></g><path fill="#ef8d22" d="M59-47c-2 24 18 29 38 22v24C64 9 27 4 27-40v-127H5v-23h24l9-43h21v43h35v23H59v120" id="aA"/><path fill="#ef8d22" d="M114-163C36-179 61-72 57 0H25l-1-190h30c1 12-1 29 2 39 6-27 23-49 58-41v29" id="aB"/><path fill="#ef8d22" d="M84 4C-5 8 30-112 23-190h32v120c0 31 7 50 39 49 72-2 45-101 50-169h31l1 190h-30c-1-10 1-25-2-33-11 22-28 36-60 37" id="aC"/><g id="t"><use transform="matrix(0.06172839506172839,0,0,0.06172839506172839,0,0)" xlink:href="#aA"/><use transform="matrix(0.06172839506172839,0,0,0.06172839506172839,6.172839506172839,0)" xlink:href="#aB"/><use transform="matrix(0.06172839506172839,0,0,0.06172839506172839,13.518518518518519,0)" xlink:href="#aC"/><use transform="matrix(0.06172839506172839,0,0,0.06172839506172839,25.864197530864196,0)" xlink:href="#ai"/></g><path fill="#333" d="M147-157h-42c-8 43-13 90-29 124h71v-124zM24-33c25-41 30-96 40-157h132v157h26V72h-43V0H46v72H2V-33h22" id="aD"/><path fill="#333" d="M133-34C117-15 103 5 69 4 32 3 11-16 11-54c-1-60 55-63 116-61 1-26-3-47-28-47-18 1-26 9-28 27l-52-2c7-38 36-58 82-57s74 22 75 68l1 82c-1 14 12 18 25 15v27c-30 8-71 5-69-32zm-48 3c29 0 43-24 42-57-32 0-66-3-65 30 0 17 8 27 23 27" id="aE"/><g id="u"><use transform="matrix(0.04938271604938272,0,0,0.04938271604938272,0,0)" xlink:href="#aD"/><use transform="matrix(0.04938271604938272,0,0,0.04938271604938272,11.25925925925926,0)" xlink:href="#aE"/></g><use transform="matrix(0.06172839506172839,0,0,0.06172839506172839,0,0)" xlink:href="#ao" id="v"/><use transform="matrix(0.06172839506172839,0,0,0.06172839506172839,0,0)" xlink:href="#ao" id="w"/><use transform="matrix(0.06172839506172839,0,0,0.06172839506172839,0,0)" xlink:href="#as" id="x"/><path fill="#333" d="M75-190v75h68v-75h49V0h-49v-81H75V0H25v-190h50" id="aF"/><path fill="#333" d="M185-48c-13 30-37 53-82 52C43 2 14-33 14-96s30-98 90-98c62 0 83 45 84 108H66c0 31 8 55 39 56 18 0 30-7 34-22zm-45-69c5-46-57-63-70-21-2 6-4 13-4 21h74" id="aG"/><path fill="#333" d="M10-190h156v33h-53V0H63v-157H10v-33" id="aH"/><g id="y"><use transform="matrix(0.04938271604938272,0,0,0.04938271604938272,0,0)" xlink:href="#aF"/><use transform="matrix(0.04938271604938272,0,0,0.04938271604938272,10.71604938271605,0)" xlink:href="#aG"/><use transform="matrix(0.04938271604938272,0,0,0.04938271604938272,20.345679012345684,0)" xlink:href="#aH"/></g><use transform="matrix(0.06172839506172839,0,0,0.06172839506172839,0,0)" xlink:href="#ac" id="z"/><path fill="#333" d="M18-100v-36l175-74v27L42-118l151 64v27" id="aI"/><use transform="matrix(0.06172839506172839,0,0,0.06172839506172839,0,0)" xlink:href="#aI" id="A"/><g id="B"><use transform="matrix(0.06172839506172839,0,0,0.06172839506172839,0,0)" xlink:href="#N"/><use transform="matrix(0.06172839506172839,0,0,0.06172839506172839,11.11111111111111,0)" xlink:href="#O"/><use transform="matrix(0.06172839506172839,0,0,0.06172839506172839,15.987654320987653,0)" xlink:href="#P"/><use transform="matrix(0.06172839506172839,0,0,0.06172839506172839,27.098765432098766,0)" xlink:href="#Q"/></g><path fill="#333" d="M30 0v-248h187v28H63v79h144v27H63v87h162V0H30" id="aJ"/><path fill="#333" d="M141 0L90-78 38 0H4l68-98-65-92h35l48 74 47-74h35l-64 92 68 98h-35" id="aK"/><g id="C"><use transform="matrix(0.06172839506172839,0,0,0.06172839506172839,0,0)" xlink:href="#aJ"/><use transform="matrix(0.06172839506172839,0,0,0.06172839506172839,14.814814814814813,0)" xlink:href="#aK"/><use transform="matrix(0.06172839506172839,0,0,0.06172839506172839,25.925925925925924,0)" xlink:href="#O"/><use transform="matrix(0.06172839506172839,0,0,0.06172839506172839,30.80246913580247,0)" xlink:href="#K"/></g><g id="D"><use transform="matrix(0.06172839506172839,0,0,0.06172839506172839,0,0)" xlink:href="#N"/><use transform="matrix(0.06172839506172839,0,0,0.06172839506172839,11.11111111111111,0)" xlink:href="#O"/><use transform="matrix(0.06172839506172839,0,0,0.06172839506172839,15.987654320987653,0)" xlink:href="#P"/><use transform="matrix(0.06172839506172839,0,0,0.06172839506172839,27.098765432098766,0)" xlink:href="#Q"/></g><path fill="#333" d="M16-82v-28h88v28H16" id="aL"/><use transform="matrix(0.06172839506172839,0,0,0.06172839506172839,0,0)" xlink:href="#aL" id="E"/><g id="F"><use transform="matrix(0.06172839506172839,0,0,0.06172839506172839,0,0)" xlink:href="#O"/><use transform="matrix(0.06172839506172839,0,0,0.06172839506172839,4.876543209876543,0)" xlink:href="#N"/><use transform="matrix(0.06172839506172839,0,0,0.06172839506172839,15.987654320987653,0)" xlink:href="#aa"/><use transform="matrix(0.06172839506172839,0,0,0.06172839506172839,31.975308641975307,0)" xlink:href="#ab"/><use transform="matrix(0.06172839506172839,0,0,0.06172839506172839,44.32098765432099,0)" xlink:href="#L"/><use transform="matrix(0.06172839506172839,0,0,0.06172839506172839,56.666666666666664,0)" xlink:href="#ac"/><use transform="matrix(0.06172839506172839,0,0,0.06172839506172839,69.01234567901234,0)" xlink:href="#ad"/><use transform="matrix(0.06172839506172839,0,0,0.06172839506172839,81.35802469135803,0)" xlink:href="#Q"/></g><g id="G"><use transform="matrix(0.06172839506172839,0,0,0.06172839506172839,0,0)" xlink:href="#ae"/><use transform="matrix(0.06172839506172839,0,0,0.06172839506172839,6.172839506172839,0)" xlink:href="#af"/><use transform="matrix(0.06172839506172839,0,0,0.06172839506172839,18.51851851851852,0)" xlink:href="#ag"/><use transform="matrix(0.06172839506172839,0,0,0.06172839506172839,23.395061728395063,0)" xlink:href="#ah"/><use transform="matrix(0.06172839506172839,0,0,0.06172839506172839,34.50617283950618,0)" xlink:href="#ai"/></g><use transform="matrix(0.06172839506172839,0,0,0.06172839506172839,0,0)" xlink:href="#ac" id="H"/><use transform="matrix(0.06172839506172839,0,0,0.06172839506172839,0,0)" xlink:href="#as" id="I"/></defs></g></svg>